#define Battery_100_width 25
#define Battery_100_height 10
static unsigned char Battery_100_bits[] = {
   0xfc, 0xff, 0xff, 0x01, 0x04, 0x00, 0x00, 0x01, 0xf7, 0xf9, 0x7c, 0x01,
   0xf1, 0xf9, 0x7c, 0x01, 0xf1, 0xf9, 0x7c, 0x01, 0xf1, 0xf9, 0x7c, 0x01,
   0xf1, 0xf9, 0x7c, 0x01, 0xf7, 0xf9, 0x7c, 0x01, 0x04, 0x00, 0x00, 0x01,
   0xfc, 0xff, 0xff, 0x01 };
