#define Battery_66_width 25
#define Battery_66_height 10
static unsigned char Battery_66_bits[] = {
   0xfc, 0xff, 0xff, 0x01, 0x04, 0x00, 0x00, 0x01, 0x07, 0xf8, 0x7c, 0x01,
   0x01, 0xf8, 0x7c, 0x01, 0x01, 0xf8, 0x7c, 0x01, 0x01, 0xf8, 0x7c, 0x01,
   0x01, 0xf8, 0x7c, 0x01, 0x07, 0xf8, 0x7c, 0x01, 0x04, 0x00, 0x00, 0x01,
   0xfc, 0xff, 0xff, 0x01 };
