#define Battery_0_width 25
#define Battery_0_height 10
static unsigned char Battery_0_bits[] = {
   0xfc, 0xff, 0xff, 0x01, 0x04, 0x00, 0x00, 0x01, 0x07, 0x20, 0x00, 0x01,
   0x01, 0x20, 0x00, 0x01, 0x01, 0x20, 0x00, 0x01, 0x01, 0x20, 0x00, 0x01,
   0x01, 0x00, 0x00, 0x01, 0x07, 0x20, 0x00, 0x01, 0x04, 0x00, 0x00, 0x01,
   0xfc, 0xff, 0xff, 0x01 };
