#define Battery_charging_width 25
#define Battery_charging_height 10
static unsigned char Battery_charging_bits[] = {
   0xfc, 0x9f, 0xfe, 0x01, 0x04, 0x40, 0x00, 0x01, 0x07, 0x60, 0x00, 0x01,
   0x01, 0x30, 0x00, 0x01, 0x01, 0x78, 0x00, 0x01, 0x01, 0xf0, 0x00, 0x01,
   0x01, 0x60, 0x00, 0x01, 0x07, 0x30, 0x00, 0x01, 0x04, 0x10, 0x00, 0x01,
   0xfc, 0xcb, 0xff, 0x01 };
