#define Battery_33_width 25
#define Battery_33_height 10
static unsigned char Battery_33_bits[] = {
   0xfc, 0xff, 0xff, 0x01, 0x04, 0x00, 0x00, 0x01, 0x07, 0x00, 0x7c, 0x01,
   0x01, 0x00, 0x7c, 0x01, 0x01, 0x00, 0x7c, 0x01, 0x01, 0x00, 0x7c, 0x01,
   0x01, 0x00, 0x7c, 0x01, 0x07, 0x00, 0x7c, 0x01, 0x04, 0x00, 0x00, 0x01,
   0xfc, 0xff, 0xff, 0x01 };
