#define Bluetooth_off_width 14
#define Bluetooth_off_height 10
static unsigned char Bluetooth_off_bits[] = {
   0x60, 0x00, 0xa0, 0x04, 0x24, 0x02, 0x28, 0x01, 0xb0, 0x00, 0x50, 0x00,
   0xa8, 0x00, 0x14, 0x01, 0xa8, 0x00, 0x64, 0x00 };
