#define Bluetooth_on_width 14
#define Bluetooth_on_height 10
static unsigned char Bluetooth_on_bits[] = {
   0x60, 0x00, 0xa0, 0x00, 0x24, 0x01, 0xa8, 0x00, 0x70, 0x00, 0x70, 0x00,
   0xa8, 0x00, 0x24, 0x01, 0xa0, 0x00, 0x60, 0x00 };
