#define Lora_off_width 25
#define Lora_off_height 10
static unsigned char Lora_off_bits[] = {
   0x00, 0x00, 0x38, 0x00, 0x04, 0x00, 0x07, 0x00, 0x04, 0xc0, 0x00, 0x00,
   0x04, 0x30, 0x00, 0x00, 0x04, 0xcc, 0x3c, 0x00, 0x04, 0x23, 0x21, 0x00,
   0xc4, 0x24, 0x3c, 0x00, 0xb0, 0x24, 0x24, 0x00, 0x0c, 0x23, 0x3c, 0x00,
   0x66, 0x00, 0x00, 0x00 };
