#define Lora_on_width 25
#define Lora_on_height 10
static unsigned char Lora_on_bits[] = {
   0x80, 0x07, 0x00, 0x00, 0x44, 0x08, 0x00, 0x00, 0x24, 0x13, 0x00, 0x00,
   0x84, 0x04, 0x00, 0x00, 0x44, 0xc8, 0x3c, 0x00, 0x04, 0x23, 0x21, 0x00,
   0x84, 0x24, 0x3c, 0x00, 0x84, 0x24, 0x24, 0x00, 0x3c, 0x23, 0x3c, 0x00,
   0x00, 0x00, 0x00, 0x00 };
