#define Wifi_on_width 14
#define Wifi_on_height 10
static unsigned char Wifi_on_bits[] = {
   0x00, 0x00, 0xe0, 0x01, 0x18, 0x06, 0xc4, 0x08, 0x32, 0x13, 0x09, 0x24,
   0xe4, 0x09, 0x10, 0x02, 0xc0, 0x00, 0xc0, 0x00 };
