#define Wifi_off_width 14
#define Wifi_off_height 10
static unsigned char Wifi_off_bits[] = {
   0x00, 0x08, 0xe0, 0x04, 0x18, 0x02, 0x04, 0x09, 0x92, 0x10, 0x49, 0x24,
   0x24, 0x09, 0x10, 0x02, 0xc8, 0x00, 0xc4, 0x00 };
